<svg width="1701" height="1014" viewBox="0 0 1701 1014" fill="none" xmlns="http://www.w3.org/2000/svg">
<path d="M764.849 758.173C715.633 808.697 652.659 843.65 583.749 858.692C514.839 873.735 443.028 868.202 377.235 842.783C311.442 817.364 254.565 773.178 213.668 715.712C172.771 658.247 149.656 590.033 147.194 519.543C144.731 449.054 163.03 379.393 199.816 319.214C236.603 259.034 290.258 210.986 354.117 181.038C417.976 151.089 489.225 140.559 559.017 150.756C628.809 160.952 694.068 191.426 746.69 238.392L640.751 357.088C611.385 330.878 574.966 313.872 536.018 308.181C497.069 302.491 457.307 308.367 421.67 325.081C386.033 341.794 356.09 368.608 335.56 402.192C315.031 435.776 304.819 474.651 306.193 513.989C307.568 553.326 320.467 591.394 343.291 623.464C366.114 655.533 397.855 680.192 434.571 694.378C471.288 708.563 511.363 711.65 549.82 703.256C588.276 694.861 623.419 675.355 650.885 647.16L764.849 758.173Z" fill="url(#paint0_linear_30_22)"/>
<path d="M496.916 513.358H457.243C455.778 499.32 446.989 490.165 433.806 490.165C417.814 490.165 408.293 504.081 408.293 528.007C408.293 552.421 417.814 565.849 433.806 565.849C446.989 565.849 455.656 557.792 457.243 543.632H497.038C495.695 577.812 471.281 598.93 433.317 598.93C390.959 598.93 364.592 572.196 364.592 528.007C364.592 484.306 390.959 457.206 433.073 457.206C471.037 457.206 495.695 479.789 496.916 513.358ZM563.581 598.93C520.734 598.93 494.367 572.929 494.367 528.007C494.367 483.94 521.345 457.206 563.581 457.206C605.939 457.206 632.795 483.695 632.795 528.007C632.795 573.051 606.428 598.93 563.581 598.93ZM563.581 567.069C579.328 567.069 588.972 553.031 588.972 528.007C588.972 503.593 579.206 489.066 563.581 489.066C547.834 489.066 538.19 503.593 538.19 528.007C538.19 553.031 547.712 567.069 563.581 567.069ZM635.983 596V411.064H679.196V596H635.983ZM751.843 598.93C708.996 598.93 682.629 572.929 682.629 528.007C682.629 483.94 709.606 457.206 751.843 457.206C794.201 457.206 821.057 483.695 821.057 528.007C821.057 573.051 794.689 598.93 751.843 598.93ZM751.843 567.069C767.59 567.069 777.233 553.031 777.233 528.007C777.233 503.593 767.468 489.066 751.843 489.066C736.096 489.066 726.452 503.593 726.452 528.007C726.452 553.031 735.974 567.069 751.843 567.069ZM823.513 596V460.136H865.505V485.648H866.359C871.242 467.582 882.351 458.305 898.464 458.305C902.492 458.305 906.521 459.037 909.45 460.014V497.123C905.788 495.536 900.417 494.682 895.534 494.682C876.979 494.682 866.726 505.18 866.726 524.223V596H823.513ZM1028.86 458.305C1063.17 458.305 1083.31 483.94 1083.31 528.007C1083.31 572.074 1063.29 597.831 1029.35 597.831C1009.58 597.831 994.562 588.432 987.727 572.807H986.872V637.382H943.659V460.136H986.628V483.94H987.482C994.318 467.948 1009.46 458.305 1028.86 458.305ZM1012.87 563.773C1028.74 563.773 1039 549.857 1039 528.007C1039 506.4 1028.74 492.362 1012.87 492.362C997.004 492.362 986.75 506.523 986.75 528.129C986.75 549.98 997.004 563.773 1012.87 563.773ZM1141.67 567.802C1155.59 567.802 1167.43 559.501 1167.43 547.05V537.65L1142.4 539.359C1130.08 540.214 1123.36 545.463 1123.36 553.764C1123.36 562.431 1130.56 567.802 1141.67 567.802ZM1126.41 597.831C1100.9 597.831 1080.51 581.107 1080.51 556.693C1080.51 531.303 1100.05 517.265 1135.57 515.067L1167.43 513.114V505.302C1167.43 494.193 1159.49 488.212 1147.29 488.212C1135.57 488.212 1127.63 494.438 1126.41 502.86H1087.47C1088.57 475.395 1112.62 457.206 1149.36 457.206C1185.62 457.206 1209.67 475.639 1209.67 502.982V596H1167.67V576.469H1166.82C1159.49 590.141 1142.89 597.831 1126.41 597.831ZM1217.13 596V411.064H1260.34V596H1217.13ZM1331.76 487.968C1317.85 487.968 1307.47 498.222 1306.37 512.748H1356.91C1356.06 497.733 1346.17 487.968 1331.76 487.968ZM1357.89 553.275H1396.95C1392.8 581.107 1367.78 598.93 1332.62 598.93C1289.65 598.93 1263.77 572.44 1263.77 528.739C1263.77 484.916 1289.89 457.206 1331.15 457.206C1371.68 457.206 1397.8 483.817 1397.8 525.199V537.528H1305.89V540.214C1305.89 556.815 1316.99 568.168 1333.23 568.168C1345.19 568.168 1354.59 562.553 1357.89 553.275ZM1411.12 430.107H1454.34V460.136H1478.87V492.118H1454.34V550.102C1454.34 559.623 1459.46 564.384 1470.08 564.384C1473.62 564.384 1476.31 564.14 1478.87 563.773V594.535C1474.6 595.512 1468.25 596.244 1459.83 596.244C1424.92 596.244 1411.12 585.38 1411.12 558.769V492.118H1392.94V460.136H1411.12V430.107ZM1493.54 430.107H1536.75V460.136H1561.29V492.118H1536.75V550.102C1536.75 559.623 1541.88 564.384 1552.5 564.384C1556.04 564.384 1558.72 564.14 1561.29 563.773V594.535C1557.01 595.512 1550.67 596.244 1542.24 596.244C1507.33 596.244 1493.54 585.38 1493.54 558.769V492.118H1475.35V460.136H1493.54V430.107ZM1627.83 487.968C1613.91 487.968 1603.54 498.222 1602.44 512.748H1652.98C1652.12 497.733 1642.23 487.968 1627.83 487.968ZM1653.95 553.275H1693.01C1688.86 581.107 1663.84 598.93 1628.68 598.93C1585.71 598.93 1559.84 572.44 1559.84 528.739C1559.84 484.916 1585.96 457.206 1627.22 457.206C1667.75 457.206 1693.87 483.817 1693.87 525.199V537.528H1601.95V540.214C1601.95 556.815 1613.06 568.168 1629.29 568.168C1641.26 568.168 1650.66 562.553 1653.95 553.275Z" fill="black"/>
<defs>
<linearGradient id="paint0_linear_30_22" x1="-230.938" y1="985.42" x2="1495.62" y2="-338.649" gradientUnits="userSpaceOnUse">
<stop stop-color="#D9D9D9"/>
<stop offset="0.240801" stop-color="#FF0004"/>
<stop offset="0.299912" stop-color="#FF00B3"/>
<stop offset="0.375629" stop-color="#00F392"/>
<stop offset="0.479932" stop-color="#0DB6FE"/>
<stop offset="0.548155" stop-color="#FFA600"/>
<stop offset="0.647048" stop-color="#F9FF3F"/>
<stop offset="0.96138"/>
</linearGradient>
</defs>
</svg>
